<?xml version="1.0" encoding="UTF-8" standalone="no"?>
<!DOCTYPE svg PUBLIC "-//W3C//DTD SVG 1.1//EN"
 "http://www.w3.org/Graphics/SVG/1.1/DTD/svg11.dtd">
<!-- Generated by graphviz version 2.47.0 (20210316.0004)
 -->
<!-- Title: G Pages: 1 -->
<svg width="1696pt" height="98pt"
 viewBox="0.00 0.00 1696.00 98.00" xmlns="http://www.w3.org/2000/svg" xmlns:xlink="http://www.w3.org/1999/xlink">
<g id="graph0" class="graph" transform="scale(1 1) rotate(0) translate(4 94)">
<title>G</title>
<polygon fill="white" stroke="transparent" points="-4,4 -4,-94 1692,-94 1692,4 -4,4"/>
<!-- submission -->
<g id="node1" class="node">
<title>submission</title>
<g id="a_node1"><a xlink:href="https://github.com/nvaccess/addon-store-submission/tree/master" xlink:title="addon&#45;store&#45;submission:master">
<polygon fill="none" stroke="black" points="191,-55 0,-55 0,-19 191,-19 191,-55"/>
<text text-anchor="middle" x="95.5" y="-33.3" font-family="Times New Roman,serif" font-size="14.00">addon&#45;store&#45;submission:master</text>
</a>
</g>
</g>
<!-- transform -->
<g id="node3" class="node">
<title>transform</title>
<g id="a_node3"><a xlink:href="https://github.com/nvaccess/transformAddonDataToViews" xlink:title="transformAddonDataToViews">
<polygon fill="none" stroke="black" points="574,-90 388,-90 388,-54 574,-54 574,-90"/>
<text text-anchor="middle" x="481" y="-68.3" font-family="Times New Roman,serif" font-size="14.00">transformAddonDataToViews</text>
</a>
</g>
</g>
<!-- submission&#45;&gt;transform -->
<g id="edge1" class="edge">
<title>submission&#45;&gt;transform</title>
<path fill="none" stroke="black" d="M201.29,-46.56C256.26,-51.58 323.34,-57.7 377.91,-62.68"/>
<polygon fill="black" stroke="black" points="201.57,-43.08 191.3,-45.65 200.94,-50.05 201.57,-43.08"/>
<polygon fill="black" stroke="black" points="377.67,-66.18 387.95,-63.6 378.31,-59.2 377.67,-66.18"/>
<text text-anchor="middle" x="289.5" y="-65.8" font-family="Times New Roman,serif" font-size="14.00">validated data is transformed</text>
</g>
<!-- validate -->
<g id="node5" class="node">
<title>validate</title>
<g id="a_node5"><a xlink:href="https://github.com/nvaccess/validateNvdaAddonMetadata" xlink:title="validateNvdaAddonMetadata">
<polygon fill="none" stroke="black" points="570.5,-36 391.5,-36 391.5,0 570.5,0 570.5,-36"/>
<text text-anchor="middle" x="481" y="-14.3" font-family="Times New Roman,serif" font-size="14.00">validateNvdaAddonMetadata</text>
</a>
</g>
</g>
<!-- submission&#45;&gt;validate -->
<g id="edge3" class="edge">
<title>submission&#45;&gt;validate</title>
<path fill="none" stroke="black" d="M201.34,-27.49C203.92,-27.32 206.47,-27.15 209,-27 266.05,-23.52 329.93,-21.32 381.34,-19.96"/>
<polygon fill="black" stroke="black" points="201.03,-24 191.3,-28.19 201.52,-30.99 201.03,-24"/>
<polygon fill="black" stroke="black" points="381.55,-23.46 391.45,-19.7 381.37,-16.46 381.55,-23.46"/>
<text text-anchor="middle" x="289.5" y="-30.8" font-family="Times New Roman,serif" font-size="14.00">data is validated first</text>
</g>
<!-- views -->
<g id="node2" class="node">
<title>views</title>
<g id="a_node2"><a xlink:href="https://github.com/nvaccess/addon-store-submission/tree/views" xlink:title="addon&#45;store&#45;submission:views">
<polygon fill="none" stroke="black" points="943,-90 757,-90 757,-54 943,-54 943,-90"/>
<text text-anchor="middle" x="850" y="-68.3" font-family="Times New Roman,serif" font-size="14.00">addon&#45;store&#45;submission:views</text>
</a>
</g>
</g>
<!-- server -->
<g id="node4" class="node">
<title>server</title>
<g id="a_node4"><a xlink:href="https://github.com/nvaccess/addonStoreAPI" xlink:title="addonStoreAPI">
<polygon fill="none" stroke="black" points="1326,-90 1222,-90 1222,-54 1326,-54 1326,-90"/>
<text text-anchor="middle" x="1274" y="-68.3" font-family="Times New Roman,serif" font-size="14.00">addonStoreAPI</text>
</a>
</g>
</g>
<!-- views&#45;&gt;server -->
<g id="edge4" class="edge">
<title>views&#45;&gt;server</title>
<path fill="none" stroke="black" d="M943.09,-72C1024.57,-72 1141.17,-72 1211.72,-72"/>
<polygon fill="black" stroke="black" points="1211.79,-75.5 1221.79,-72 1211.79,-68.5 1211.79,-75.5"/>
<text text-anchor="middle" x="1082.5" y="-75.8" font-family="Times New Roman,serif" font-size="14.00">server is notified of newly transformed data</text>
</g>
<!-- transform&#45;&gt;views -->
<g id="edge2" class="edge">
<title>transform&#45;&gt;views</title>
<path fill="none" stroke="black" d="M574.14,-72C626.6,-72 692.43,-72 746.52,-72"/>
<polygon fill="black" stroke="black" points="746.83,-75.5 756.83,-72 746.83,-68.5 746.83,-75.5"/>
<text text-anchor="middle" x="665.5" y="-75.8" font-family="Times New Roman,serif" font-size="14.00">transformed data is stored</text>
</g>
<!-- server&#45;&gt;views -->
<g id="edge5" class="edge">
<title>server&#45;&gt;views</title>
<path fill="none" stroke="black" d="M1221.7,-56.25C1215.78,-54.92 1209.79,-53.78 1204,-53 1096.97,-38.53 1068.61,-43.78 961,-53 958.47,-53.22 955.9,-53.46 953.32,-53.73"/>
<polygon fill="black" stroke="black" points="952.81,-50.27 943.28,-54.88 953.61,-57.22 952.81,-50.27"/>
<text text-anchor="middle" x="1082.5" y="-56.8" font-family="Times New Roman,serif" font-size="14.00">server updates cache of transformed data</text>
</g>
<!-- NVDA -->
<g id="node6" class="node">
<title>NVDA</title>
<g id="a_node6"><a xlink:href="https://github.com/nvaccess/nvda" xlink:title="NVDA">
<polygon fill="none" stroke="black" points="1688,-90 1632,-90 1632,-54 1688,-54 1688,-90"/>
<text text-anchor="middle" x="1660" y="-68.3" font-family="Times New Roman,serif" font-size="14.00">NVDA</text>
</a>
</g>
</g>
<!-- server&#45;&gt;NVDA -->
<g id="edge6" class="edge">
<title>server&#45;&gt;NVDA</title>
<path fill="none" stroke="black" d="M1336.41,-72C1416.78,-72 1555.2,-72 1621.49,-72"/>
<polygon fill="black" stroke="black" points="1336.39,-68.5 1326.39,-72 1336.39,-75.5 1336.39,-68.5"/>
<polygon fill="black" stroke="black" points="1621.87,-75.5 1631.87,-72 1621.87,-68.5 1621.87,-75.5"/>
<text text-anchor="middle" x="1479" y="-75.8" font-family="Times New Roman,serif" font-size="14.00">NVDA fetches transformed data from the server</text>
</g>
</g>
</svg>
