<?xml version="1.0" encoding="UTF-8" standalone="no"?>
<!DOCTYPE svg PUBLIC "-//W3C//DTD SVG 1.1//EN"
 "http://www.w3.org/Graphics/SVG/1.1/DTD/svg11.dtd">
<!-- Generated by graphviz version 2.47.0 (20210316.0004)
 -->
<!-- Title: G Pages: 1 -->
<svg width="1711pt" height="109pt"
 viewBox="0.00 0.00 1711.00 109.00" xmlns="http://www.w3.org/2000/svg" xmlns:xlink="http://www.w3.org/1999/xlink">
<g id="graph0" class="graph" transform="scale(1 1) rotate(0) translate(4 105)">
<title>G</title>
<polygon fill="white" stroke="transparent" points="-4,4 -4,-105 1707,-105 1707,4 -4,4"/>
<!-- submission -->
<g id="node1" class="node">
<title>submission</title>
<g id="a_node1"><a xlink:href="https://github.com/nvaccess/addon-store-submission/tree/master" xlink:title="addon&#45;store&#45;submission:master">
<polygon fill="none" stroke="black" points="191,-66 0,-66 0,-30 191,-30 191,-66"/>
<text text-anchor="middle" x="95.5" y="-44.3" font-family="Times New Roman,serif" font-size="14.00">addon&#45;store&#45;submission:master</text>
</a>
</g>
</g>
<!-- transform -->
<g id="node3" class="node">
<title>transform</title>
<g id="a_node3"><a xlink:href="https://github.com/nvaccess/transformAddonDataToViews" xlink:title="transformAddonDataToViews">
<polygon fill="none" stroke="black" points="574,-101 388,-101 388,-65 574,-65 574,-101"/>
<text text-anchor="middle" x="481" y="-79.3" font-family="Times New Roman,serif" font-size="14.00">transformAddonDataToViews</text>
</a>
</g>
</g>
<!-- submission&#45;&gt;transform -->
<g id="edge2" class="edge">
<title>submission&#45;&gt;transform</title>
<path fill="none" stroke="black" d="M191.3,-56.65C247.9,-61.82 319.79,-68.38 377.68,-73.66"/>
<polygon fill="black" stroke="black" points="377.67,-77.18 387.95,-74.6 378.31,-70.2 377.67,-77.18"/>
<text text-anchor="middle" x="289.5" y="-75.8" font-family="Times New Roman,serif" font-size="14.00">validated data is transformed</text>
</g>
<!-- validate -->
<g id="node6" class="node">
<title>validate</title>
<g id="a_node6"><a xlink:href="https://github.com/nvaccess/validateNvdaAddonMetadata" xlink:title="validateNvdaAddonMetadata">
<polygon fill="none" stroke="black" points="570.5,-47 391.5,-47 391.5,-11 570.5,-11 570.5,-47"/>
<text text-anchor="middle" x="481" y="-25.3" font-family="Times New Roman,serif" font-size="14.00">validateNvdaAddonMetadata</text>
</a>
</g>
</g>
<!-- submission&#45;&gt;validate -->
<g id="edge1" class="edge">
<title>submission&#45;&gt;validate</title>
<path fill="none" stroke="black" d="M201.34,-38.49C203.92,-38.32 206.47,-38.15 209,-38 266.05,-34.52 329.93,-32.32 381.34,-30.96"/>
<polygon fill="black" stroke="black" points="201.03,-35 191.3,-39.19 201.52,-41.99 201.03,-35"/>
<polygon fill="black" stroke="black" points="381.55,-34.46 391.45,-30.7 381.37,-27.46 381.55,-34.46"/>
<text text-anchor="middle" x="289.5" y="-41.8" font-family="Times New Roman,serif" font-size="14.00">data is validated first</text>
</g>
<!-- views -->
<g id="node2" class="node">
<title>views</title>
<g id="a_node2"><a xlink:href="https://github.com/nvaccess/addon-store-submission/tree/views" xlink:title="addon&#45;store&#45;submission:views">
<polygon fill="none" stroke="black" points="943,-101 757,-101 757,-65 943,-65 943,-101"/>
<text text-anchor="middle" x="850" y="-79.3" font-family="Times New Roman,serif" font-size="14.00">addon&#45;store&#45;submission:views</text>
</a>
</g>
</g>
<!-- server -->
<g id="node4" class="node">
<title>server</title>
<g id="a_node4"><a xlink:href="https://github.com/nvaccess/nvaccessServer" xlink:title="NV Access server">
<polygon fill="none" stroke="black" points="1341,-74 1222,-74 1222,-38 1341,-38 1341,-74"/>
<text text-anchor="middle" x="1281.5" y="-52.3" font-family="Times New Roman,serif" font-size="14.00">NV Access server</text>
</a>
</g>
</g>
<!-- views&#45;&gt;server -->
<g id="edge4" class="edge">
<title>views&#45;&gt;server</title>
<path fill="none" stroke="black" d="M943.12,-84.53C1014.55,-84.65 1115.87,-82.51 1204,-72 1206.53,-71.7 1209.11,-71.35 1211.71,-70.98"/>
<polygon fill="black" stroke="black" points="1212.46,-74.4 1221.78,-69.36 1211.35,-67.49 1212.46,-74.4"/>
<text text-anchor="middle" x="1082.5" y="-87.8" font-family="Times New Roman,serif" font-size="14.00">server is notified of newly transformed data</text>
</g>
<!-- transform&#45;&gt;views -->
<g id="edge3" class="edge">
<title>transform&#45;&gt;views</title>
<path fill="none" stroke="black" d="M574.14,-83C626.6,-83 692.43,-83 746.52,-83"/>
<polygon fill="black" stroke="black" points="746.83,-86.5 756.83,-83 746.83,-79.5 746.83,-86.5"/>
<text text-anchor="middle" x="665.5" y="-86.8" font-family="Times New Roman,serif" font-size="14.00">transformed data is stored</text>
</g>
<!-- server&#45;&gt;views -->
<g id="edge6" class="edge">
<title>server&#45;&gt;views</title>
<path fill="none" stroke="black" d="M1221.89,-50.48C1157.58,-45.58 1051.44,-40.89 961,-53 946.17,-54.99 930.52,-58.41 915.81,-62.26"/>
<polygon fill="black" stroke="black" points="914.54,-58.98 905.8,-64.97 916.37,-65.73 914.54,-58.98"/>
<text text-anchor="middle" x="1082.5" y="-56.8" font-family="Times New Roman,serif" font-size="14.00">server updates cache of transformed data</text>
</g>
<!-- NVDA -->
<g id="node7" class="node">
<title>NVDA</title>
<g id="a_node7"><a xlink:href="https://github.com/nvaccess/nvda" xlink:title="NVDA">
<polygon fill="none" stroke="black" points="1703,-74 1647,-74 1647,-38 1703,-38 1703,-74"/>
<text text-anchor="middle" x="1675" y="-52.3" font-family="Times New Roman,serif" font-size="14.00">NVDA</text>
</a>
</g>
</g>
<!-- server&#45;&gt;NVDA -->
<g id="edge7" class="edge">
<title>server&#45;&gt;NVDA</title>
<path fill="none" stroke="black" d="M1351.23,-56C1434.27,-56 1570.96,-56 1636.57,-56"/>
<polygon fill="black" stroke="black" points="1351.11,-52.5 1341.11,-56 1351.11,-59.5 1351.11,-52.5"/>
<polygon fill="black" stroke="black" points="1636.85,-59.5 1646.85,-56 1636.85,-52.5 1636.85,-59.5"/>
<text text-anchor="middle" x="1494" y="-59.8" font-family="Times New Roman,serif" font-size="14.00">NVDA fetches transformed data from the server</text>
</g>
<!-- storeAPI -->
<g id="node5" class="node">
<title>storeAPI</title>
<g id="a_node5"><a xlink:href="https://github.com/nvaccess/addonStoreAPI" xlink:title="addonStoreAPI">
<polygon fill="none" stroke="black" points="902,-36 798,-36 798,0 902,0 902,-36"/>
<text text-anchor="middle" x="850" y="-14.3" font-family="Times New Roman,serif" font-size="14.00">addonStoreAPI</text>
</a>
</g>
</g>
<!-- storeAPI&#45;&gt;server -->
<g id="edge5" class="edge">
<title>storeAPI&#45;&gt;server</title>
<path fill="none" stroke="black" d="M902.18,-13.61C971.4,-8.93 1098.37,-4.79 1204,-26 1213.45,-27.9 1223.23,-30.88 1232.52,-34.25"/>
<polygon fill="black" stroke="black" points="1231.4,-37.56 1241.99,-37.86 1233.9,-31.02 1231.4,-37.56"/>
<text text-anchor="middle" x="1082.5" y="-29.8" font-family="Times New Roman,serif" font-size="14.00">addon store API is deployed to the server</text>
</g>
</g>
</svg>
